# xmcd CD database file generated by Grip 3.0.3
# 
# Track frame offsets:
#       183
#       10608
#       21420
#       32145
#       45258
#       57345
#       68670
#       82108
#       96620
#       108408
#       120245
#       132245
#       144345
#       154808
#       165720
#       177233
# 
# Disc length: 2486 seconds
# 
# Revision: 4
# Processed by: cddbd v1.4PL0 Copyright (c) Steve Scherf et al.
# Submitted via: Grip 3.0.3
# 
DISCID=cf09b410
DTITLE=Chuck Berry - Greatest
DYEAR=1992
DGENRE=Rock and Roll
TTITLE0=Maybelene
TTITLE1=Thirty Days
TTITLE2=Roll Over Beethoven
TTITLE3=Too Much Monkey Business
TTITLE4=School Day
TTITLE5=Rock And Roll Music
TTITLE6=Sweet Little Sixteen
TTITLE7=Reelin And Rockin
TTITLE8=Johnny B. Goode
TTITLE9=Around And Around
TTITLE10=Carol
TTITLE11=Little Queenie
TTITLE12=Almost Grown
TTITLE13=Back In The U.S.A
TTITLE14=Too Pooped To Pop
TTITLE15=Bye Bye Johnny
EXTD=
EXTT0=
EXTT1=
EXTT2=
EXTT3=
EXTT4=
EXTT5=
EXTT6=
EXTT7=
EXTT8=
EXTT9=
EXTT10=
EXTT11=
EXTT12=
EXTT13=
EXTT14=
EXTT15=
PLAYORDER=
